<svg xmlns="http://www.w3.org/2000/svg" xmlns:xlink="http://www.w3.org/1999/xlink" version="1.0" id="Layer_1" x="0px" y="0px" viewBox="0 0 200 200" enable-background="new 0 0 200 200" xml:space="preserve">
  <circle id="WhiteFill" fill="#718d7e" cx="99.97" cy="99.45" r="82.32"/>
  <g id="BlackOutline">
    <path fill="#eaf1ed" d="M99.97 10.95c-48.8 0-88.5 39.7-88.5 88.5s39.7 88.5 88.5 88.5 88.5-39.7 88.5-88.5S148.77 10.95 99.97 10.95zM137 165.92v-10.22c0-3.41-2.59-6.17-6-6.17s-6 2.77-6 6.17v15.7c-4 2.03-13 3.36-21 3.88v-13.05c0-3.41-2.59-6.17-6-6.17s-6 2.77-6 6.17v13.05c-4-0.52-12-1.85-17-3.88v-15.7c0-3.41-2.59-6.17-6-6.17s-6 2.77-6 6.17v10.21c-12-6.01-19.92-14.55-26.66-24.81l12.78-1.7c3.38-0.45 5.75-3.56 5.3-6.94s-3.55-5.76-6.94-5.31l-17.45 2.32c-3.98-9.22-6.2-19.38-6.2-30.04 0-41.99 34.16-76.15 76.15-76.15 41.99 0 76.15 34.16 76.15 76.15 0 10.66-2.22 20.8-6.19 30.01l-17.24-2.3c-3.38-0.45-6.49 1.93-6.94 5.31 -0.45 3.38 1.93 6.49 5.31 6.94l12.58 1.68C156.91 151.36 149 159.9 137 165.92z"/>
    <circle id="rightEye" fill="#eaf1ed" cx="58.81" cy="99.45" r="16.46"/>
    <circle id="leftEye" fill="#eaf1ed" cx="141.14" cy="99.45" r="16.46"/>
    <path fill="#eaf1ed" d="M106.12 110.42c-2.12-5.52-9.93-5.52-12.06 0l-6.31 16.72c-1.29 3.34 2.64 7.86 4.72 7.86h15.23c2.08 0 6.01-4.52 4.72-7.86L106.12 110.42z"/>
  </g>
</svg>
